<?xml version="1.0" encoding="UTF-8" standalone="no"?>
<!DOCTYPE svg PUBLIC "-//W3C//DTD SVG 1.1//EN" "http://www.w3.org/Graphics/SVG/1.1/DTD/svg11.dtd">
<svg width="100%" height="100%" viewBox="0 0 640 640" version="1.1" xmlns="http://www.w3.org/2000/svg" xmlns:xlink="http://www.w3.org/1999/xlink" xml:space="preserve" xmlns:serif="http://www.serif.com/" style="fill-rule:evenodd;clip-rule:evenodd;stroke-linecap:round;stroke-linejoin:round;stroke-miterlimit:1.5;">
    <g transform="matrix(1.49667,0,0,1.4987,-223.541,-129.176)">
        <circle cx="362.956" cy="278.568" r="180.524" style="fill:rgb(180,191,53);"/>
    </g>
    <path d="M278.578,278.326L245.604,229.738L244.536,302.66L208.193,302.962L207.963,169.241L245.604,169.105L279.45,220.147L311.919,169.975L349.83,169.858L350.69,248.746L422.645,192.723L425.118,196.062L314.035,292.913L312.233,229.557L278.578,278.326Z" style="fill:white;"/>
    <path d="M352.617,289.653L374.932,289.319L374.932,257.878L245.604,369.431" style="fill:rgb(141,53,51);stroke:rgb(141,53,51);stroke-width:1px;"/>
    <g transform="matrix(1.18869,0,0,1.23212,-21.7118,-98.7892)">
        <g transform="matrix(42.6517,0,0,42.6517,407.446,445.589)">
        </g>
        <text x="187.107px" y="445.589px" style="font-family:'Arial-BoldMT', 'Arial', sans-serif;font-weight:700;font-size:42.652px;fill:rgb(141,53,51);">MARHABA</text>
    </g>
    <g id="Layer1">
        <g transform="matrix(0.946165,0,0,1.07537,14.4111,12.2009)">
            <rect x="380.959" y="228.459" width="39.042" height="123.351" style="fill:rgb(141,53,51);"/>
        </g>
        <g transform="matrix(1.9689,0,0,0.262153,-375.137,197.091)">
            <rect x="380.959" y="228.459" width="39.042" height="123.351" style="fill:rgb(141,53,51);"/>
        </g>
        <g transform="matrix(1,0,0,1,-2.7129,-1.96518)">
            <path d="M426.613,195.814C426.613,195.814 428.049,201.171 428.539,202.999C428.656,203.435 428.947,203.803 429.344,204.018C430.229,204.499 431.834,205.059 432.935,203.601C433.923,202.294 434.098,193.106 434.098,193.106L446.258,183.513C447.816,190.998 448.655,197.525 451.802,203.601C451.802,203.601 454.838,203.066 455.885,202.567C456.755,202.154 457.779,201.089 458.089,200.157C458.603,198.612 458.515,195.882 458.333,193.106C458.129,189.98 457.805,186.795 458.089,185.179C458.357,183.658 462.203,183.306 461.309,181.849C460.373,180.322 456.53,177.614 456.91,174.898C457.468,170.905 467.38,160.956 464.661,157.891" style="fill:white;stroke:white;stroke-width:1px;"/>
            <g transform="matrix(-3.06162e-16,-1,-1,3.06162e-16,623.022,623.022)">
                <path d="M426.613,195.814C426.613,195.814 428.049,201.171 428.539,202.999C428.656,203.435 428.947,203.803 429.344,204.018C430.229,204.499 431.834,205.059 432.935,203.601C433.923,202.294 434.098,193.106 434.098,193.106L446.258,183.513C447.816,190.998 448.655,197.525 451.802,203.601C451.802,203.601 454.838,203.066 455.885,202.567C456.755,202.154 457.779,201.089 458.089,200.157C458.603,198.612 458.515,195.882 458.333,193.106C458.129,189.98 457.805,186.795 458.089,185.179C458.357,183.658 462.203,183.306 461.309,181.849C460.373,180.322 456.53,177.614 456.91,174.898C457.468,170.905 467.38,160.956 464.661,157.891" style="fill:white;stroke:white;stroke-width:1px;"/>
            </g>
        </g>
    </g>
    <g transform="matrix(0.728927,0,0,0.700205,52.3745,85.1947)">
        <g id="Layer2">
            <g transform="matrix(42.6517,0,0,42.6517,558.205,563.277)">
            </g>
            <text x="207.411px" y="563.277px" style="font-family:'ArialMT', 'Arial', sans-serif;font-size:42.652px;fill:white;stroke:white;stroke-width:1.4px;stroke-linecap:butt;stroke-miterlimit:2;">TRA<tspan x="289.549px 317.997px 346.446px 368.584px 378.08px 406.529px " y="563.277px 563.277px 563.277px 563.277px 563.277px 563.277px ">VEL AG</tspan>ENCY</text>
        </g>
    </g>
</svg>
